# xmcd
#
# Track frame offsets:
#	150
#	12952
#	26687
#	37155
#	48477
#	60185
#	69697
#	79462
#	89275
#	98650
#	111612
#	123985
#	136275
#	149975
#	160065
#	173225
#	186757
#	195925
#	207757
#	223720
#
# Disc length: 3114 seconds
#
# Revision: 0
# Processed by: cddbd v1.4PL0 Copyright (c) Steve Scherf et al.
# Submitted via: dBpowerAMP V4.0
#
DISCID=260c2814
DTITLE=Jackie Wilson  - 20 Greatest Hits
DYEAR=1900
DGENRE=Rhythmic Soul
TTITLE0=Night
TTITLE1=Baby Workout
TTITLE2=Whispper(Gettin Louder)
TTITLE3=To Be  Loved
TTITLE4=A Woman a Lover a Friend
TTITLE5=That s Why
TTITLE6=I ll Be Satisfied
TTITLE7=Shake Sake Shake
TTITLE8=All My Love 
TTITLE9=Doggin Around
TTITLE10=Reet Peit
TTITLE11=Lonely Teardrop
TTITLE12=Alone At Last
TTITLE13=Talk that Talk
TTITLE14=I Get The Sweetest Feeling
TTITLE15=Higher and Higher
TTITLE16=Please Tell Me Why
TTITLE17=Am I The Man
TTITLE18=No Pity in The Nacked City
TTITLE19=I m Coming on Back To You
EXTD=Br Music BrCd 48
EXTT0=
EXTT1=
EXTT2=
EXTT3=
EXTT4=
EXTT5=
EXTT6=
EXTT7=
EXTT8=
EXTT9=
EXTT10=
EXTT11=
EXTT12=
EXTT13=
EXTT14=
EXTT15=
EXTT16=
EXTT17=
EXTT18=
EXTT19=
PLAYORDER=
